<?xml version="1.0" encoding="iso-8859-1"?>
<!-- Uploaded to: SVG Repo, www.svgrepo.com, Generator: SVG Repo Mixer Tools -->
<svg fill="#ffffff" height="800px" width="800px" version="1.1" id="Layer_1" xmlns="http://www.w3.org/2000/svg" xmlns:xlink="http://www.w3.org/1999/xlink"
	 viewBox="0 0 512 512" xml:space="preserve">
<g>
	<g>
		<path d="M460.038,497.875l-85.333-136.533c-3.125-4.983-11.35-4.983-14.475,0l-85.333,136.533
			c-1.642,2.633-1.729,6.483-0.225,9.192c1.504,2.717,4.358,4.933,7.462,4.933H452.8c3.104,0,5.958-2.217,7.462-4.933
			C461.767,504.358,461.68,500.508,460.038,497.875z M297.53,494.933l69.938-111.9l69.938,111.9H297.53z"/>
	</g>
</g>
<g>
	<g>
		<path d="M366.4,400c-4.713,0-8.533,3.817-8.533,8.533V451.2c0,4.717,3.821,8.533,8.533,8.533s8.533-3.817,8.533-8.533v-42.667
			C374.934,403.817,371.113,400,366.4,400z"/>
	</g>
</g>
<g>
	<g>
		<path d="M373.525,470.742c-0.854-0.767-1.708-1.367-2.817-1.792c-3.158-1.367-6.912-0.6-9.3,1.792
			c-1.538,1.617-2.475,3.842-2.475,6.058c0,1.108,0.254,2.217,0.679,3.242c0.429,1.025,1.025,1.958,1.796,2.817
			c0.85,0.767,1.792,1.367,2.812,1.792c1.025,0.425,2.133,0.683,3.246,0.683c2.304,0,4.438-0.858,6.058-2.475
			c0.767-0.858,1.363-1.792,1.792-2.817c0.512-1.025,0.683-2.133,0.683-3.242C376,474.583,375.059,472.358,373.525,470.742z"/>
	</g>
</g>
<g>
	<g>
		<path d="M367.417,34.133H324.8c-4.713,0-8.533,3.821-8.533,8.533s3.821,8.533,8.533,8.533h42.617c4.733,0,7.517,2.75,7.517,7.442
			v273.092c0,4.717,3.821,8.533,8.533,8.533S392,336.45,392,331.733V58.642C392,44.538,381.559,34.133,367.417,34.133z"/>
	</g>
</g>
<g>
	<g>
		<path d="M273.6,452.267H77.359c-4.721,0-9.625-4.883-9.625-9.575V58.642c0-4.692,4.929-7.442,9.679-7.442h52.95
			c4.713,0,8.533-3.821,8.533-8.533s-3.821-8.533-8.533-8.533h-52.95c-14.158,0-26.746,10.404-26.746,24.508v384.05
			c0,14.1,12.563,26.642,26.692,26.642H273.6c4.713,0,8.533-3.817,8.533-8.533C282.134,456.083,278.313,452.267,273.6,452.267z"/>
	</g>
</g>
<g>
	<g>
		<path d="M299.2,34.133h-9.6v-9.6C289.6,10.417,279.171,0,265.042,0h-76.75C174.163,0,161.6,10.417,161.6,24.533v9.6h-7.467
			c-4.713,0-9.6,2.754-9.6,7.467v34.133c0,4.713,4.887,9.6,9.6,9.6H299.2c4.713,0,7.467-4.887,7.467-9.6V41.6
			C306.667,36.887,303.913,34.133,299.2,34.133z M178.667,24.533c0-4.704,4.904-7.467,9.625-7.467h76.75
			c4.8,0,7.492,2.683,7.492,7.467v9.6h-93.867V24.533z M289.6,68.267h-128V51.2h9.6h110.933h7.467V68.267z"/>
	</g>
</g>
<g>
	<g>
		<path d="M333.3,68.267h-6.958c-4.713,0-8.533,3.821-8.533,8.533s3.821,8.533,8.533,8.533h6.958c4.725,0,7.5,2.783,7.5,7.513
			v238.887c0,4.717,3.821,8.533,8.533,8.533c4.713,0,8.533-3.817,8.533-8.533V92.846C357.867,78.704,347.434,68.267,333.3,68.267z"
			/>
	</g>
</g>
<g>
	<g>
		<path d="M273.6,418.133H111.396c-4.667,0-9.529-4.917-9.529-9.642V92.846c0-4.729,4.892-7.513,9.592-7.513H120
			c4.713,0,8.533-3.821,8.533-8.533s-3.821-8.533-8.533-8.533h-8.542c-14.112,0-26.658,10.438-26.658,24.579v315.646
			c0,14.142,12.521,26.708,26.596,26.708H273.6c4.713,0,8.533-3.817,8.533-8.533S278.313,418.133,273.6,418.133z"/>
	</g>
</g>
<g>
	<g>
		<path d="M222.4,128h-93.867c-4.713,0-8.533,3.821-8.533,8.533s3.821,8.533,8.533,8.533H222.4c4.713,0,8.533-3.821,8.533-8.533
			S227.113,128,222.4,128z"/>
	</g>
</g>
<g>
	<g>
		<path d="M316.267,128h-51.2c-4.713,0-8.533,3.821-8.533,8.533s3.821,8.533,8.533,8.533h51.2c4.713,0,8.533-3.821,8.533-8.533
			S320.98,128,316.267,128z"/>
	</g>
</g>
<g>
	<g>
		<path d="M316.267,170.667h-51.2c-4.713,0-8.533,3.821-8.533,8.533s3.821,8.533,8.533,8.533h51.2c4.713,0,8.533-3.821,8.533-8.533
			S320.98,170.667,316.267,170.667z"/>
	</g>
</g>
<g>
	<g>
		<path d="M316.267,213.333h-51.2c-4.713,0-8.533,3.821-8.533,8.533s3.821,8.533,8.533,8.533h51.2c4.713,0,8.533-3.821,8.533-8.533
			S320.98,213.333,316.267,213.333z"/>
	</g>
</g>
<g>
	<g>
		<path d="M316.267,256h-51.2c-4.713,0-8.533,3.821-8.533,8.533s3.821,8.533,8.533,8.533h51.2c4.713,0,8.533-3.821,8.533-8.533
			S320.98,256,316.267,256z"/>
	</g>
</g>
<g>
	<g>
		<path d="M316.267,298.667h-51.2c-4.713,0-8.533,3.817-8.533,8.533s3.821,8.533,8.533,8.533h51.2c4.713,0,8.533-3.817,8.533-8.533
			S320.98,298.667,316.267,298.667z"/>
	</g>
</g>
<g>
	<g>
		<path d="M316.267,341.333h-51.2c-4.713,0-8.533,3.817-8.533,8.533s3.821,8.533,8.533,8.533h51.2c4.713,0,8.533-3.817,8.533-8.533
			S320.98,341.333,316.267,341.333z"/>
	</g>
</g>
<g>
	<g>
		<path d="M222.4,170.667h-93.867c-4.713,0-8.533,3.821-8.533,8.533s3.821,8.533,8.533,8.533H222.4c4.713,0,8.533-3.821,8.533-8.533
			S227.113,170.667,222.4,170.667z"/>
	</g>
</g>
<g>
	<g>
		<path d="M222.4,213.333h-93.867c-4.713,0-8.533,3.821-8.533,8.533s3.821,8.533,8.533,8.533H222.4c4.713,0,8.533-3.821,8.533-8.533
			S227.113,213.333,222.4,213.333z"/>
	</g>
</g>
<g>
	<g>
		<path d="M222.4,256h-93.867c-4.713,0-8.533,3.821-8.533,8.533s3.821,8.533,8.533,8.533H222.4c4.713,0,8.533-3.821,8.533-8.533
			S227.113,256,222.4,256z"/>
	</g>
</g>
<g>
	<g>
		<path d="M222.4,298.667h-93.867c-4.713,0-8.533,3.817-8.533,8.533s3.821,8.533,8.533,8.533H222.4c4.713,0,8.533-3.817,8.533-8.533
			S227.113,298.667,222.4,298.667z"/>
	</g>
</g>
<g>
	<g>
		<path d="M222.4,341.333h-93.867c-4.713,0-8.533,3.817-8.533,8.533s3.821,8.533,8.533,8.533H222.4c4.713,0,8.533-3.817,8.533-8.533
			S227.113,341.333,222.4,341.333z"/>
	</g>
</g>
</svg>